<?xml version="1.0" encoding="utf-8"?>
<!-- Generator: Adobe Illustrator 22.0.1, SVG Export Plug-In . SVG Version: 6.00 Build 0)  -->
<svg version="1.1" id="Layer_1" xmlns="http://www.w3.org/2000/svg" xmlns:xlink="http://www.w3.org/1999/xlink" x="0px" y="0px"
	 width="80px" height="80px" viewBox="0 0 80 80" style="enable-background:new 0 0 80 80;" xml:space="preserve">
<style type="text/css">
	.st0{fill:#0077B5;}
	.st1{fill:#FFFFFF;}
</style>
<circle id="XMLID_1_" class="st0" cx="40" cy="40" r="40"/>
<path class="st1" d="M61,44.5V60h-9V45.6c0-3.6-1.3-6.1-4.5-6.1c-2.5,0-4,1.7-4.6,3.3c-0.2,0.6-0.3,1.4-0.3,2.2v15.1h-9.1
	c0,0,0.1-24.5,0-27.1h9v3.9c0,0.1-0.1,0.1-0.1,0.1h0.1v-0.1c1.2-1.8,3.4-4.5,8.1-4.5C56.6,32.3,61,36.2,61,44.5L61,44.5z M24.1,19.9
	c-3.1,0-5.1,2-5.1,4.7c0,2.6,2,4.7,5,4.7H24c3.1,0,5.1-2.1,5.1-4.7C29.1,21.9,27.2,19.9,24.1,19.9z M19.6,60h9V33h-9
	C19.6,33,19.6,60,19.6,60z"/>
</svg>
